<svg width="15" height="19" viewBox="0 0 15 19" fill="none" xmlns="http://www.w3.org/2000/svg">
<path d="M14.1706 17.7726C12.7174 18.593 11.0738 19.0162 9.40513 18.9995C7.73646 18.9829 6.10162 18.5269 4.66515 17.6777C3.22868 16.8284 2.04126 15.6157 1.2224 14.1617C0.403534 12.7077 -0.0178747 11.0636 0.000581015 9.39493C0.0190368 7.72628 0.476706 6.09194 1.32753 4.65638C2.17835 3.22082 3.3923 2.0347 4.8472 1.2174C6.30211 0.400097 7.94663 -0.0195471 9.61526 0.000699232C11.2839 0.0209456 12.9177 0.480368 14.3524 1.33273L13.3477 3.02372C12.2101 2.34784 10.9145 1.98354 9.5914 1.96748C8.26825 1.95143 6.96422 2.28419 5.81054 2.93227C4.65687 3.58035 3.69426 4.52089 3.0196 5.65922C2.34493 6.79756 1.98202 8.09352 1.96739 9.41669C1.95275 10.7399 2.28691 12.0435 2.93623 13.1965C3.58555 14.3495 4.52712 15.3111 5.66618 15.9845C6.80524 16.658 8.10159 17.0195 9.42477 17.0327C10.7479 17.0459 12.0513 16.7104 13.2035 16.0598L14.1706 17.7726Z" fill="#B02127"/>
</svg>
